<mxfile host="Electron" modified="2024-09-15T13:09:31.716Z" agent="Mozilla/5.0 (Windows NT 10.0; Win64; x64) AppleWebKit/537.36 (KHTML, like Gecko) draw.io/24.2.5 Chrome/120.0.6099.109 Electron/28.1.0 Safari/537.36" etag="DfOr1GAMsM7pj99PI8Pb" version="24.2.5" type="device">
  <diagram name="Pagina-1" id="w_FWv7704ixgWOhtn0g2">
    <mxGraphModel dx="683" dy="402" grid="1" gridSize="10" guides="1" tooltips="1" connect="1" arrows="1" fold="1" page="1" pageScale="1" pageWidth="827" pageHeight="1169" math="0" shadow="0">
      <root>
        <mxCell id="0" />
        <mxCell id="1" parent="0" />
        <mxCell id="QYoa0m7AfW5m8D-g7pcO-1" value="Input&lt;div&gt;Agent&amp;nbsp;&lt;/div&gt;&lt;div&gt;Handler&lt;/div&gt;" style="shape=cylinder3;whiteSpace=wrap;html=1;boundedLbl=1;backgroundOutline=1;size=15;" parent="1" vertex="1">
          <mxGeometry x="414" y="860" width="50" height="90" as="geometry" />
        </mxCell>
        <mxCell id="eQ1bl0RRmd7t6Fn6SIVk-1" style="edgeStyle=orthogonalEdgeStyle;rounded=0;orthogonalLoop=1;jettySize=auto;html=1;" edge="1" parent="1" source="eQ1bl0RRmd7t6Fn6SIVk-2">
          <mxGeometry relative="1" as="geometry">
            <mxPoint x="280" y="865" as="targetPoint" />
          </mxGeometry>
        </mxCell>
        <mxCell id="eQ1bl0RRmd7t6Fn6SIVk-2" value="&lt;font style=&quot;font-size: 13px;&quot;&gt;Input&amp;nbsp;&lt;/font&gt;&lt;div style=&quot;font-size: 13px;&quot;&gt;&lt;font style=&quot;font-size: 13px;&quot;&gt;&lt;font style=&quot;font-size: 13px;&quot;&gt;Agen&lt;/font&gt;&lt;span style=&quot;background-color: initial;&quot;&gt;t&lt;/span&gt;&lt;/font&gt;&lt;/div&gt;&lt;div style=&quot;font-size: 13px;&quot;&gt;&lt;font style=&quot;font-size: 13px;&quot;&gt;&lt;span style=&quot;background-color: initial;&quot;&gt;Text&lt;/span&gt;&lt;/font&gt;&lt;/div&gt;" style="triangle;whiteSpace=wrap;html=1;align=left;" vertex="1" parent="1">
          <mxGeometry x="110" y="830" width="80" height="70" as="geometry" />
        </mxCell>
        <mxCell id="eQ1bl0RRmd7t6Fn6SIVk-3" value="" style="pointerEvents=1;verticalLabelPosition=bottom;shadow=0;dashed=0;align=center;html=1;verticalAlign=top;shape=mxgraph.electrical.waveforms.sine_wave;" vertex="1" parent="1">
          <mxGeometry x="40" y="840" width="20" height="50" as="geometry" />
        </mxCell>
        <mxCell id="eQ1bl0RRmd7t6Fn6SIVk-4" style="edgeStyle=orthogonalEdgeStyle;rounded=0;orthogonalLoop=1;jettySize=auto;html=1;entryX=0;entryY=0.5;entryDx=0;entryDy=0;" edge="1" parent="1" source="eQ1bl0RRmd7t6Fn6SIVk-5" target="eQ1bl0RRmd7t6Fn6SIVk-2">
          <mxGeometry relative="1" as="geometry" />
        </mxCell>
        <mxCell id="eQ1bl0RRmd7t6Fn6SIVk-5" value="Text: &#39;ciao&#39;" style="pointerEvents=1;verticalLabelPosition=bottom;shadow=0;dashed=0;align=center;html=1;verticalAlign=top;shape=mxgraph.electrical.waveforms.sine_wave;" vertex="1" parent="1">
          <mxGeometry x="60" y="840" width="20" height="50" as="geometry" />
        </mxCell>
        <mxCell id="eQ1bl0RRmd7t6Fn6SIVk-7" style="edgeStyle=orthogonalEdgeStyle;rounded=0;orthogonalLoop=1;jettySize=auto;html=1;" edge="1" parent="1" source="eQ1bl0RRmd7t6Fn6SIVk-6" target="QYoa0m7AfW5m8D-g7pcO-1">
          <mxGeometry relative="1" as="geometry">
            <Array as="points">
              <mxPoint x="360" y="855" />
              <mxPoint x="360" y="905" />
            </Array>
          </mxGeometry>
        </mxCell>
        <mxCell id="eQ1bl0RRmd7t6Fn6SIVk-6" value="Min UTF-8: &#39;c&#39;,&#39;i&#39;,&#39;a&#39;,&#39;o&#39;" style="text;html=1;align=center;verticalAlign=middle;resizable=0;points=[];autosize=1;strokeColor=none;fillColor=none;" vertex="1" parent="1">
          <mxGeometry x="170" y="840" width="140" height="30" as="geometry" />
        </mxCell>
        <mxCell id="eQ1bl0RRmd7t6Fn6SIVk-9" style="edgeStyle=orthogonalEdgeStyle;rounded=0;orthogonalLoop=1;jettySize=auto;html=1;" edge="1" parent="1" source="eQ1bl0RRmd7t6Fn6SIVk-10">
          <mxGeometry relative="1" as="geometry">
            <mxPoint x="280" y="955" as="targetPoint" />
          </mxGeometry>
        </mxCell>
        <mxCell id="eQ1bl0RRmd7t6Fn6SIVk-10" value="&lt;font style=&quot;font-size: 13px;&quot;&gt;Input&amp;nbsp;&lt;/font&gt;&lt;div style=&quot;font-size: 13px;&quot;&gt;&lt;font style=&quot;font-size: 13px;&quot;&gt;&lt;font style=&quot;font-size: 13px;&quot;&gt;Agen&lt;/font&gt;&lt;span style=&quot;background-color: initial;&quot;&gt;t&lt;/span&gt;&lt;/font&gt;&lt;/div&gt;&lt;div style=&quot;font-size: 13px;&quot;&gt;Image&lt;/div&gt;" style="triangle;whiteSpace=wrap;html=1;align=left;" vertex="1" parent="1">
          <mxGeometry x="110" y="920" width="80" height="70" as="geometry" />
        </mxCell>
        <mxCell id="eQ1bl0RRmd7t6Fn6SIVk-11" value="" style="pointerEvents=1;verticalLabelPosition=bottom;shadow=0;dashed=0;align=center;html=1;verticalAlign=top;shape=mxgraph.electrical.waveforms.sine_wave;" vertex="1" parent="1">
          <mxGeometry x="40" y="930" width="20" height="50" as="geometry" />
        </mxCell>
        <mxCell id="eQ1bl0RRmd7t6Fn6SIVk-12" style="edgeStyle=orthogonalEdgeStyle;rounded=0;orthogonalLoop=1;jettySize=auto;html=1;entryX=0;entryY=0.5;entryDx=0;entryDy=0;" edge="1" parent="1" source="eQ1bl0RRmd7t6Fn6SIVk-13" target="eQ1bl0RRmd7t6Fn6SIVk-10">
          <mxGeometry relative="1" as="geometry" />
        </mxCell>
        <mxCell id="eQ1bl0RRmd7t6Fn6SIVk-13" value="Image:" style="pointerEvents=1;verticalLabelPosition=bottom;shadow=0;dashed=0;align=center;html=1;verticalAlign=top;shape=mxgraph.electrical.waveforms.sine_wave;" vertex="1" parent="1">
          <mxGeometry x="60" y="930" width="20" height="50" as="geometry" />
        </mxCell>
        <mxCell id="eQ1bl0RRmd7t6Fn6SIVk-15" style="edgeStyle=orthogonalEdgeStyle;rounded=0;orthogonalLoop=1;jettySize=auto;html=1;" edge="1" parent="1" source="eQ1bl0RRmd7t6Fn6SIVk-14" target="QYoa0m7AfW5m8D-g7pcO-1">
          <mxGeometry relative="1" as="geometry">
            <Array as="points">
              <mxPoint x="360" y="940" />
              <mxPoint x="360" y="905" />
            </Array>
          </mxGeometry>
        </mxCell>
        <mxCell id="eQ1bl0RRmd7t6Fn6SIVk-14" value="Min 8 bit: &#39;255&#39;,&#39;0&#39;,&#39;0&#39;...&lt;div&gt;&amp;nbsp; &amp;nbsp; &amp;nbsp; &amp;nbsp; &amp;nbsp; &amp;nbsp; &amp;nbsp; &amp;nbsp; &amp;nbsp; &#39;0&#39;,&#39;128&#39;,0,0...&lt;/div&gt;" style="text;html=1;align=center;verticalAlign=middle;resizable=0;points=[];autosize=1;strokeColor=none;fillColor=none;" vertex="1" parent="1">
          <mxGeometry x="155" y="920" width="150" height="40" as="geometry" />
        </mxCell>
        <mxCell id="eQ1bl0RRmd7t6Fn6SIVk-16" value="" style="shape=image;verticalLabelPosition=bottom;labelBackgroundColor=default;verticalAlign=top;aspect=fixed;imageAspect=0;image=data:image/png,iVBORw0KGgoAAAANSUhEUgAAASEAAADXCAYAAABVoeerAAAclklEQVR4Ae2dO7IkRdKFZwOYjcQ+WmEVrACdTfQGYAXoSAjomCGhtoiGiISGhoTUv333n9Pj40RG5SMiPG/dE2ZNVjz9dfxEVHEt8l8f/1PevXv38bPPPvM/+8AYMAaWYuBfJiETrzcfY6ASAyYh73pLd71KsFv2PcnWJGQSMgkZA6UYMAkZgKUA9OnknqeTlXExCZmETELGQCkGTEIGYCkAV+64lnXPU5dJyCRkEjIGSjFgEjIASwHo08k9Tycr42ISMgmZhIyBUgyYhAzAUgCu3HEt656nLpOQScgkZAyUYsAkZACWAtCnk3ueTlbGxSRkEjIJGQOlGDAJGYClAFy541rWPU9dJiGTkEnIGCjFwBQS+vbbbz/+/fffuiXk4/fff//JyK+//vrjX3/99amPD3/88cfHL7/88mVMnkv/b7/99mn+zN0MHdBFZZVcbMp++eWXX5bYXC0bbKiAGeI/M8ZxbXysAiaJQeyf9fkqzsClSswd9I02aUzMvziX/tU+b/l0OAnh4N9///0TmHBANJRA47itgANC5ouUWkrPaiNAIh6RwgoyECglS0QcwTPL5krZ2Enyi3iwfxUZ4Nsoi7jnhJ7l8ys4Q29hVLFTHX3xoXDU0p+xK3DVkr3VNpyEsiAlswy/KwnlhMAOgrkCmDkhkB2Bmn06sl4pO9uYsTLSzriWkjcmayv+cc6ozy05V3CW51KPdmW9TUL/+dpxx5MQyRgJhzol7pY5oKPqgAZwaD3qlKiP+kY/q2SLCPAzNqmO3b0kGmE/ZPfnn39+OoGJ/JAtfUbIaa0xGmf4KuKEes9/b5KEMDo6KQacoMevagSNnYI2lRUkgFyB47vvvnuRj9xvvvnmf8DaAtWINkAjcGA3/kIPEgV/jZCxtUaVbJEOfsd2ihKI+pa+I9pFQvgYX1OkRy+BR8geiTPlCmtKN/SPJftSvtaY2fZKr95z6tcxDHxEIjgwE1FUeM8acfzZz+hBifoS5FVEgOxI1gIryXrWpj3zBNrVskVC2B0TgSSJ9T02HB0TN0IlsPRR/eiae8ePwpls6PlKNmUikq571tDYmc9pJIRzeuQio7QrkfBqi89VRIAcCCjqsYoIkBPJD/vx3xZ4on+ufq6UjX3RRiUNOl21qzdfcmICP8Jhb70jfSNwJvKIvtvS4RGOWCP6YWudme1TSAij9hAQhuGEuAtHYwWWPc6O8858lizpovqKAGVQqT47GfGTZMnHqq+QjQyKZPHMZHwmlnvmZIxSV+z3zD87RriSLNX34kzxUbx6ekB45KH8m8fSvjdP89yR9eEkJCe9oCv8R07H8FiyMwlGLHuDM8IpAoTkr5Sd/bYFnBF25jUqZUc8rCIg2R+xJnyqb+bzCs6izsIpT/yY180Ek+O82t9bPh1OQluC3H7PP5l3XByXagyYhPwn+1N/f6kGuOXfn2RNQiYhk5AxUIoBk5ABWApAn1Tuf1KZHSOTkEnIJGQMlGLAJGQAlgJw9i7r9e9/0jIJmYRMQsZAKQZMQgZgKQB9Urn/SWV2jExCJiGTkDFQigGTkAFYCsDZu6zXv/9JyyRkEjIJGQOlGDAJGYClAPRJ5f4nldkxMgmZhExCxkApBkxCBmApAGfvsl7//ictk5BJyCRkDJRi4FYklO9DyXcN7dnVmJPvUWGeLnjSHSz5vp7cv/J+mXinTkv3PXafHRPvp1l5v8yIWJ+1Od+rc+beKONs3AnrViREYEU8AspegGj8hw8f/nFNK4B/9C60+PYFJche2WeTgXn5uk9kriIDyC/KwveryPdKrK/4O8dWm0/elLZkGGfjyEc+vg0J5WREQRJyb1L8+uuvLwndWkfG6ikgCXjMyRfakyQrSCgmI/pl3aTz6GdORtbf47sRerTkHIn1FR0y8bJWjkFvfePsiUkIcETCoU6JO3UPHOprAVx9euZEV0JKPrJXfC2SXOShm+rYPZsA8UE8/cknyJY+8tfoJ+vL16xN/Uysz+iFXyEdzaVOifqor/c0zsaR0W1OQgLm1fd+7QEHIGyBToA8Snw9sPb6RDrYjk4UdMiJ0lvjbJ9I6LW/e+uo/fKtiA8cnHnHm3H2pCREEkYCIND5a9Ij0D0CByCMMlhPZKAdkjEUgPpI3pV+yRX5aC30QAfVZzxbJx/pM9tuEUCMw5lYn/GLYhs3IfSJ9T3rGmdPSEKtoI4GBwBsfc1CTkwIQMjYo8DcA948BsIR+dG3iggkJ5KdTkfEIus5sj4q1md02op1jMGedVs2aJ5xdoygbvN1TEmhxFc9JomC3HtugWMLGKwFMCM5SfZRYPb02upDdjx1tZJka+7V9uwT6vL/1bV78+VfyVL9aKx7Mrb6dAJUbFXH71tzWu3G2TGiaflQbbchIRQSGF+y8uCPswA4FxGLgJb7lQTIzvMFUjlq5lNEhH75RDZTbrY7+mO23CuxvqpbxsMRAso4IWbG2TVCuhUJXQWX518Dg/1n/1VgwCTkP9k/9DWkAqSW+dzkaBIyCZmEjIFSDJiEDMBSAPqU89ynnD3xNQmZhExCxkApBkxCBmApAPfslB7z3Kclk5BJyCRkDJRiwCRkAJYC0Kec5z7l7ImvScgkZBIyBkoxYBIyAEsBuGen9JjnPi2ZhExCJiFjoBQDJiEDsBSAPuU89ylnT3xNQiYhk5AxUIoBk5ABWArAPTulxzz3ackkZBIyCRkDpRi4FQnlO2ZW3umT75gZfcEWl2Bx70y8fybv8NhLOXK/TV7jaD3ej7PyLqMVsZY/8WkLS7rHqdV31I97x8/GWU8P2dvDYG/+rL5bkRBgECAUrNFk0HKkEkKyRBijyIB1dPFVSz5tjOE+bf6NkrslS+3IicSD71ddbDYz1oqnsCR74xN84WveR9cbF+dc/Sy9ZuGsp1++CRIdYux7c2f33YaEspMwHEetSIqcjMiOSXIlCAAvvnixtZYI98cff3yxdwUJ5YRAr1YMWvpebWvJGRlr/PeIWBRf5D4ae9VezZ+JM8nYespe9QtzK7AmmVvP25AQzoiEQ52ygq0zEKlToj5bDnzUTsKx4/LSPJW8rgAiYlgBDJ0E0A8bBEp0nC1/dqzxJ/4GOyrRJj4LVzn2j+J5pT/LGomznl4ZV6rjG3TozV3RdzsSuvresTNOEzgAJwWSOPMuqpZsralgCwDafUVSkID6YsK01hzRJhJ6tveOyYciGXyFP/V1WP3ysWI/wqeP1pAsYWIkznqyo83gTuQjfXpzV/TdioRwTgRPTNCZziAYlHhCASixflZ+ax21vX///kUGddaPYDkrb++81slnlXzsnRXrlg2xLSderu/135lxM3HW00f243N00FgIKdbVvvp5GxKCcCAgfT3AEUpWnDjTMciJ5IesUeBsEans+uGHHz79H7OXrAz/GUGAPZ8JmBGEOh3FGPTWONs3O9Y5uWTrzz///EL6wc2fPuqkdNamPfNm4uyRfHzCP42TT9BJbVXP25CQnKLkUz0mySwn6VSgIKk+IkDZjlyPNqlvhNy47tZnfBuTj7r8vzVnRLvslCzVR8U6J3uuRxuQqbjH9hmfhSvJU31FvJFBkayeT2bY3lvzNiSEkgKjtqdRoOw5QH0ChGQrWOq/8sxrb9kl+0fKfqQ3uqiIFB7NGdEvWyV7yydnZUW78ik3rsk4kUJsn/U5Y2FlrJGl0vPJLNu31r0VCW0p6fbn/rN9x/dtx9ck5D/ZL/9NwCRkEno5ob17985gNCEZA8bAcgz4JGTQLQedTz5v++ST428SMgmZhIyBUgyYhAzAUgDmXdH1t3dKMgmZhExCxkApBkxCBmApAH3yeXsnnxxzk5BJyCRkDJRiwCRkAJYCMO+Krr+9k5FJyCRkEjIGSjFgEjIASwHok8/bO/nkmJuETEImIWOgFAMmIQOwFIB5V3T97Z2MTEImIZOQMVCKgVuRUL5jpvKel9H32/R2+HjPS7xkrDcn9nFTIfNa/urdqzPC3z3Z6KOS7yrSPPWvvFcn3+mzMtaVsq/iLGJu5OdbkRCgVSIpWCsAomSULCXIisRAVrzWFh2OXDjFeBK89f4s9I9raSz2AiLq/OPzGX9rvZZs9UlWjC1t8TVI6HmGfM8kQmWsK2VfxdkZX++dcxsSyk7CgAzkvUYdHZeTlfkxaY6ud2R8liMy2EOA+IxX27T0zYBnDGvz+iHmtXTMurTGqK0nu2UD45FNn9bQszVefaOflbGulJ1ju9Lnj2J4GxIiQPHITp0Sd/JHxpzth+wIkuZTp0R91DfyKaLAVtZVHdnocERWBpnW0tpx/dgWZeQ1Yl/vc54HwDPZtdq05sqEqIo1tlbJzlhQ/QzOFLORz9uR0LO9d6wXLIEBUiCRBYoM1t4a6stEQDvrRCKlTmmREG1nvxK1ZOc26lvr0xf1lE0znvIt9lKQO+odc4/0rZI9EmePbDzTfysSAhTx5NM7wp8xdmuOkjMmAiCN9a25V9oFDuxGB61FUsa62nvPnPSMjesj48OHD//zW4zWw88QRIucNKb3bMnW6Qa5lJ9++unFn7THtbAzxjz2zfhcFWtsqZIdcRBxdQZnM2JyGxIiEQAjTxm6ggiQhZycCASLIEmXWc+cwALMUULI67T0hQAg1kgEIqAIztbcXtse2cjhx2js01rI3DodaczoZ2WsK2XnGJ3F2eh4sN5tSEhO0elD9SvJsddh2rUJFHNUP0oEe+XFccigSFYLqHH81ucMsjyuZdMIAkLOI9nIyRtMBQGhq/xQEetK2aNwlnE1on4bEsIYEc9LVqavKCOM7a0hgEi2SKE3Z1SfAILsfCLrycg6S3clWFy3deJgXC6tcS0dHsmGZFSyTVtztQG15I1sy/JXxrpSdsRDjslI/x5d61YkdFR5j397f+LvmD9fzE1C/pP9T7/ROMGfL8FfQ0xNQiYhk5AxUIoBk5ABWArA17BTW8e5J0STkEnIJGQMlGLAJGQAlgLQp4y5p4zX4F+TkEnIJGQMlGLAJGQAlgLwNezU1nHuac0kZBIyCRkDpRgwCRmApQD0KWPuKeM1+NckZBIyCRkDpRgwCRmApQB8DTu1dZx7WjMJmYRMQsZAKQZMQgZgKQB9yph7yngN/jUJmYRMQsZAKQZuRUL5PiHdi7OCzfM9LysuU5Nd8Z6Xvff5aC5PXU7W8lfvXp8R/u7JjvcV5buCNE93DlXe6bMy1q8ZZxFzIz/fioQArRJJwVoBECWjZClBViQGsuKtg+hw5MIpxpPgrXd/oX9cS2OxFxBR5x+fz/hb67Vkq0+yYmxp83vH/rt5vAacjSSdvNZtSCgno5Ik76DZgBH1nKysGZNmhIytNbIckcEeYOIzv3fs2G8qlbGulH0FZ1vYHdV+GxIiQJFwqFPiTj7K6LwOuzZBUjt1StRHfSOfOoFhK+uqjmx0OCIrg0xrae24fmyLMvIasa/3Oc+DSP3esX+S4zPgrIeDs323IyG/d+z/vyJFUtwT3EwEzAH0kUhFri0Sou3M71HIacnObdS31qcv6rnH3rNjRATYq43G7x37J2Ge9e+ZebciIUARTz583dh6dfAZY7fmKDljIgDSWN+ae6Vdp5V88iEp0enI2jnpmRvXR4bfO1b37i/i8Qw4O4LJvWNvQ0Kt34RWEAGOQk4kPwGGxN7ryLPjMnmIONDpyJp5ndZcviZBrDzVj985oRwlPc3nuUc2cvzesdePsxj3UZ9vQ0JKPp0+VL+SHHudpB+DRTqqHyWCvfLiOGRQJItnJsQ4fuvzIyJo2TSCgNDnkezWBkNct76ebdk4ol1+qIh1pexROBsRg7zGbUgIxUQ8L1l54sfZbNyRugAi2SKFI2ucHSuAIPsIAWWdpbsSLK7bSnjG5dIa17LrkWx99WjZtDVXG1BL3si2LH9lrCtlRzwcwdlI37fWuhUJtRR0W+2Phva//T8bAyYh/8n+p9+HZoPN65vQWhgwCZmETELGQCkGTEIGYCkAWzuj297WickkZBIyCRkDpRgwCRmApQD0qedtnXpa8TYJmYRMQsZAKQZMQgZgKQBbO6Pb3tbpyCRkEjIJGQOlGDAJGYClAPSp522delrxNgmZhExCxkApBkxCBmApAFs7o9ve1unIJGQSMgkZA6UYMAkZgKUA9KnnbZ16WvE2CZmETELGQCkGbkVC+T4h3YvTYs/Rbfmel9GXqekCMe7X2bqzR/f7rLzfpnfvz2gfx/VWxFr+xOctLOl+nVZf1HXk59k46+kqe3sY7M2f1XcrEgIMAoSCNZoMWo5UQkiWCGMUGbDOFvFIH8Zwnzb/RsnV2ltP5MTLrfD9qovFZsZa8RSWWvaDL3zdemdaa/yINuk1C2c9HfPtlugQY9+bO7vvNiSUnYThOGpFUuRkRHZMkitBAHjxRX+ttUS4P/7444u9K0goJwR6tWLQ0vdqW0vOyFjjvx4Bob/ii9xHY6/aq/kzcSYZW0/Zq35hbgXWJHPreRsSwhmRcKhTVrB1BiJ1StRny4GP2kk4dlxeUqiS1xVARAwrgKGTAPphg0CJjrPlz441/sTfYEcl2sRn4SrH/lE8r/RnWSNx1tMr40p1fIMOvbkr+m5HQs/23jEAH4MtAGj3FUlBAuqLCTMLBCIh/A0pUpCLXrOBiRxkzoi1fCiSwX/I09dh9cvHmRhm+Zt1JQvZFPmATYp4zJIdbSa+FHSRPrPk7l33ViSEcyJ4YoLuNejMOIJBiScUJQoBPLOm5rTWUdv79+9fZFJnfASL5s96tk4+q+Rj76xYt2yIbTnxcn2Wv1l3Js56est+fI4OGrtiw5Gs3vM2JAThQED6eoDSSlac2DPiah9yIvmx3ihwtohUdv3www8vO/RLRqb/REK8al9rvoAZQanTUYxBa+7VttmxzsklW3/++ecX0k+ufqnqpHTVtt78mTjryaUPn/BP4+QTdFJb1fM2JCSnKPlUj0kyy0k6FShIqo8IULYj16NN6hshN6679RnfxuSjLv9vzRnRLjslS/VRsc7JnuvRBmQq7rF9xmfhSvJUXxFvZFAkq+eTGbb31rwNCaGkwKidahQoew5QnwAh2QqW+q8889pbdsn+kbIf6Y0uKiKFR3NG9MtWyd7yyVlZ0a58yo1rMk6kENtnfc5YWBlrZKn0fDLL9q11b0VCW0q63X/abww8LwZMQv6T/fLfBEwwz0swe2JrEjIJmYSMgVIMmIQMwFIA7tkpPea5T0omIZOQScgYKMWAScgALAWgTznPfcrZE1+TkEnIJGQMlGLAJGQAlgJwz07pMc99WjIJmYRMQsZAKQZMQgZgKQB9ynnuU86e+JqETEImIWOgFAMmIQOwFIB7dkqPee7TkknIJGQSMgZKMWASMgBLAehTznOfcvbE1yRkEjIJGQOlGLgVCeU7Zs7c88KceFGXmJjb/GhXyfe45P6Vd+vEe15ausuGGc+99+6Mlj0i1md1ynf6nLnLyDgbd4K7FQkRWBGPgLIXIBr/4cOHf1wTC+Dja3dI+pjszOWycV1rqgTZK/tsMjAvX3WKzFUXTuGHKAvfryLfK7G+4u8cW20+eVPakmGcjSMf+fg2JJSTEQVJyL1JwSteWKO1jozVU0AS8JiT33hAkqwgoZiM6Jd1k86jnzkZWX+P70bo0ZJzJNZXdMjEy1o5Br31jbMnJiHAEQmHOiXu1D1wqK8FcPXpmRNdCSn5yI4nJc0b/ZRc5LG26tg9mwDxQTz9ySfIlj6j7dV6rC9f00b9TKy13pEnfoV0NIc6Jeqjvt7TOBtHRrc5CQmYV99FtQccgLAFOgHyKPH1wNrrE+lgOzpR0CEnSm+Ns30ioWd779gjf8i3Ij5wgA/ySfjROsbZk5IQSRgJgECPBgcgjDIAm8hAOyRjKAD1ERiv9EuuyEdroQc6qD7j2Tr5SJ/ZdosAYhzOxPqMXxTbuAmhT6zvWfcRCRln+0nqNiehVlBHgwNgtL5mIScmBCBk7FFg7gFvHgPhiPzoW0UEkoOd0kmnI2KhthnPUbE+o9tWrGMM9qzbskHzjLP9BITPbkNCSgolvuoxSRTk3nMLHFvAYC2AGclJso8Cs6fXVh+y46mrlSRbc6+2Z59Ql/+vrt2bL/9KlupHY92TsdWnE6Biqzp+35rTajfOjhFNy4dquw0JoZDA+JKVB3+cBcC5iFgEtNyvJEB2ni+QylEznyIi9Msnsplys93RH7PlXon1Vd0yHo4QUMYJMTPOrhHSrUjoKrg8/xoY7D/7rwIDJiH/yf6hryEVILXM5yZHk5BJyCRkDJRiwCRkAJYC0Kec5z7l7ImvScgkZBIyBkoxYBIyAEsBuGen9JjnPi2ZhExCJiFjoBQDJiEDsBSAPuU89ylnT3xNQiYhk5AxUIoBk5ABWArAPTulxzz3ackkZBIyCRkDpRgwCRmApQD0Kee5Tzl74msSMgmZhIyBUgyYhAzAUgDu2Sk95rlPSyYhk5BJyBgoxcBwEuIeHpV8Pw0XQXH3Sizx3p7WXS1H7nq5smPmO2bQ5cp6R+bG+4R0N82R+VfGRp+vvMso3ycUcXDFnj1zK2N9RXbOn5wbMffIsYilLJf+nJ97fDdjzFASwikCk0CmOsrjRN7/RV/LGBJiZfJLB+kq2Qp2DrLGj3wii+TnybrosIoMsC/KIlargIksYUMJIv+P9G9eqzLWV2Qzt/fuPOzEn1uYxcfElmf2SXV9KAllYwBVBPVdSSgnowKqJMl2jazHZGRdJeQWmEbJzgnBupkQR8nK67TkZKzkOaPqlbEeKbuFE5NQ43t1BtZdSQg9I+FQX3FcFRGIcFRHNjqMSrzWOoDY7x3777W+cbNs+WtE20icmYQahJODBOHwnVQJRr/aXjK8cZ+ykl/9kRjy+iPrAge6UgDkmXdRHdVJpINcbKWgi/Q5ut6R8SIhv3dsTayJjeI6AmfgJROnMPQCpLSRibTUF38vOoKbGWOnfB2TwTi9pzT98TeJOFYJuoKI0IMSgwpQYj3qNuqzbER29BU2x/ooeXEdxQjZ2Eqf9FE9jh/5WUkYY88GdfQdc2d0qoo1uo6SzTrRdy0/KL5bOCIGdyGi4SQk4/eQxyPg4cA967SCcKSNgOSgrpKNfdHGVUQgORGkxC5+RTviwyNjiTv+5ql5xGA26SOrMtYjZBOvveQBrmJ85Wueq2IdZW59HkpCRwhISRATMCoJQPPXudg/8nPWW3VAM1JOay1kxNNIC6iteSPaMqCpryACxV6yVN9KmBG2ag3FVrhTfUWsJeus7Bwv2dR6Yk+PrNBB/m/NX9k2lIRwUqsowLk/gk5A1PyeA2c4SACRfOk8Q1ZeE1kq+USWx46ux5isBGWOd8TCaBvzepWxPis7zxNeFLPcn3EUMcZcEWH2TUV9KAlVGGCZz/0n/Y7v88fXJLTj//Q5EZ4/ERzjuhibhExC03/3coLXJfhr8L1JyCRkEjIGSjFgEjIASwH4GnZq6zj3JGcSMgmZhIyBUgyYhAzAUgD6lDH3lPEa/GsSMgmZhIyBUgyYhAzAUgC+hp3aOs49rZmETEImIWOgFAMmIQOwFIA+Zcw9ZbwG/5qETEImIWOgFAMmIQOwFICvYae2jnNPayYhk5BJyBgoxYBJyAAsBaBPGXNPGa/BvyYhk5BJyBgoxYBJyAAsBeBr2Kmt49zTmknIJGQSMgZKMWASMgBLAehTxtxTxmvwr0nIJGQSMgZKMfCJhL744ouP//73v0uVeQ2sbR29cxsDYzHwiYS++uqrj59//rlJyLuiMWAMLMXA/wGzQ/mM88hnfAAAAABJRU5ErkJggg==;" vertex="1" parent="1">
          <mxGeometry x="20" y="1010" width="107.53" height="80" as="geometry" />
        </mxCell>
        <mxCell id="eQ1bl0RRmd7t6Fn6SIVk-17" value="Clock/s" style="text;html=1;align=center;verticalAlign=middle;resizable=0;points=[];autosize=1;strokeColor=none;fillColor=none;" vertex="1" parent="1">
          <mxGeometry x="409" y="860" width="60" height="30" as="geometry" />
        </mxCell>
        <mxCell id="eQ1bl0RRmd7t6Fn6SIVk-18" value="Codifica e creazioni&amp;nbsp;&lt;div&gt;di nuove connessioni&lt;/div&gt;" style="text;html=1;align=center;verticalAlign=middle;resizable=0;points=[];autosize=1;strokeColor=none;fillColor=none;" vertex="1" parent="1">
          <mxGeometry x="369" y="950" width="140" height="40" as="geometry" />
        </mxCell>
        <mxCell id="eQ1bl0RRmd7t6Fn6SIVk-19" value="Esempio?" style="ellipse;whiteSpace=wrap;html=1;aspect=fixed;" vertex="1" parent="1">
          <mxGeometry x="480" y="852.5" width="105" height="105" as="geometry" />
        </mxCell>
      </root>
    </mxGraphModel>
  </diagram>
</mxfile>
